<?xml version="1.0" encoding="UTF-8" ?>
<!DOCTYPE svg PUBLIC "-//W3C//DTD SVG 1.1//EN" "http://www.w3.org/Graphics/SVG/1.1/DTD/svg11.dtd">
<svg width="2096pt" height="748pt" viewBox="0 0 2096 748" version="1.1" xmlns="http://www.w3.org/2000/svg">
<g id="#48416bff">
<path fill="#48416b" opacity="1.00" d=" M 760.25 0.00 L 762.62 0.00 C 762.63 13.50 762.61 27.01 762.63 40.51 C 764.19 41.38 766.87 41.74 767.00 43.99 C 767.33 47.68 767.05 51.40 767.13 55.11 C 767.69 55.25 768.79 55.53 769.35 55.67 C 771.01 65.68 772.05 75.80 773.49 85.84 C 774.77 85.86 776.07 85.88 777.37 85.90 C 777.38 91.39 777.36 96.88 777.38 102.37 C 780.63 102.37 783.87 102.38 787.12 102.38 C 787.13 107.67 787.11 112.96 787.14 118.25 C 789.42 118.25 791.71 118.25 794.00 118.26 C 793.99 150.18 794.01 182.10 793.99 214.01 C 798.30 208.66 803.14 203.64 808.97 199.92 C 818.38 193.76 829.88 191.74 840.97 191.98 C 856.83 192.01 872.97 197.34 884.69 208.23 C 897.07 219.55 903.76 235.83 906.28 252.15 C 908.28 263.66 907.66 275.37 907.75 286.99 C 907.75 321.99 907.74 356.99 907.75 391.99 C 886.46 392.01 865.17 392.00 843.88 391.99 C 843.87 352.98 843.87 313.97 843.88 274.96 C 843.79 267.71 842.70 259.85 837.81 254.16 C 833.24 248.83 825.77 247.26 819.05 247.62 C 810.33 248.00 802.08 253.18 797.83 260.77 C 794.63 266.26 793.57 272.70 793.61 278.98 C 793.64 316.65 793.61 354.32 793.63 391.99 C 772.04 392.01 750.46 392.00 728.88 391.99 C 728.80 300.75 729.10 209.51 729.00 118.26 C 731.28 118.25 733.58 118.24 735.87 118.24 C 735.87 112.95 735.87 107.67 735.88 102.39 C 739.12 102.38 742.37 102.37 745.62 102.37 C 745.63 96.88 745.61 91.39 745.63 85.90 C 746.89 85.88 748.15 85.86 749.43 85.84 C 750.87 75.80 751.90 65.68 753.57 55.68 C 754.11 55.53 755.20 55.24 755.74 55.09 C 755.82 51.41 755.53 47.72 755.89 44.06 C 756.02 41.81 758.64 41.38 760.24 40.52 C 760.27 27.01 760.24 13.51 760.25 0.00 Z" />
<path fill="#48416b" opacity="1.00" d=" M 1169.02 137.50 C 1190.39 133.08 1211.75 128.60 1233.12 124.18 C 1233.14 156.24 1233.12 188.31 1233.12 220.37 C 1246.04 220.38 1258.95 220.38 1271.87 220.37 C 1271.88 236.83 1271.87 253.29 1271.87 269.75 C 1258.83 269.75 1245.79 269.74 1232.75 269.75 C 1232.73 287.17 1232.77 304.59 1232.74 322.01 C 1232.66 326.48 1232.61 331.22 1234.76 335.29 C 1236.68 339.29 1240.78 341.89 1245.09 342.62 C 1253.33 344.07 1261.74 341.37 1268.72 337.05 C 1273.35 352.91 1278.04 368.75 1282.74 384.59 C 1266.85 393.73 1248.15 396.62 1230.04 396.22 C 1216.92 395.86 1203.42 393.00 1192.53 385.37 C 1183.54 379.18 1177.09 369.79 1173.58 359.54 C 1170.17 349.74 1168.99 339.29 1168.99 328.96 C 1169.00 309.22 1169.00 289.49 1168.99 269.75 C 1159.79 269.74 1150.58 269.75 1141.38 269.75 C 1141.38 253.29 1141.37 236.83 1141.38 220.38 C 1150.58 220.37 1159.79 220.38 1169.00 220.37 C 1169.02 192.75 1168.97 165.13 1169.02 137.50 Z" />
<path fill="#48416b" opacity="1.00" d=" M 1310.13 164.25 C 1331.49 164.23 1352.84 164.29 1374.20 164.22 C 1374.31 182.94 1374.22 201.65 1374.25 220.37 C 1387.16 220.38 1400.07 220.38 1412.99 220.37 C 1413.01 236.83 1413.00 253.29 1412.99 269.75 C 1399.91 269.75 1386.83 269.74 1373.76 269.75 C 1373.74 286.17 1373.76 302.59 1373.75 319.01 C 1373.77 324.63 1373.29 330.67 1376.14 335.77 C 1378.24 339.73 1382.49 342.14 1386.86 342.73 C 1394.89 343.91 1403.03 341.27 1409.81 337.05 C 1414.44 352.92 1419.19 368.76 1423.81 384.63 C 1406.05 394.65 1385.02 397.36 1364.93 395.85 C 1349.51 394.63 1333.68 388.65 1323.81 376.27 C 1312.51 362.28 1309.73 343.52 1310.12 326.03 C 1310.12 307.27 1310.13 288.51 1310.12 269.76 C 1300.96 269.74 1291.79 269.75 1282.64 269.75 C 1282.60 253.30 1282.64 236.84 1282.62 220.39 C 1291.78 220.35 1300.95 220.39 1310.12 220.37 C 1310.13 201.66 1310.12 182.96 1310.13 164.25 Z" />
<path fill="#48416b" opacity="1.00" d=" M 58.63 212.46 C 72.24 194.39 97.25 187.15 118.86 192.38 C 131.51 195.36 142.85 203.59 149.16 215.00 C 154.25 208.77 160.34 203.30 167.38 199.37 C 181.73 191.28 198.80 189.40 214.99 190.80 C 230.68 192.19 246.17 199.40 255.93 212.01 C 268.14 227.47 271.94 247.75 272.36 267.00 C 272.39 308.67 272.37 350.33 272.37 391.99 C 250.96 392.00 229.54 392.00 208.12 391.99 C 208.13 351.98 208.11 311.97 208.13 271.96 C 208.13 265.72 207.40 259.21 204.20 253.73 C 201.87 249.62 197.71 246.53 193.00 245.83 C 185.31 244.69 177.04 248.12 172.67 254.61 C 169.16 259.66 168.01 265.95 168.00 272.00 C 168.00 312.00 168.00 352.00 168.00 392.00 C 146.87 392.00 125.75 392.00 104.63 392.00 C 104.61 350.99 104.64 309.98 104.61 268.98 C 104.37 261.89 103.54 253.95 98.31 248.64 C 92.01 242.99 81.86 243.59 75.10 248.15 C 67.34 253.33 63.95 263.03 64.00 272.05 C 64.00 312.03 64.00 352.02 64.00 392.00 C 42.66 392.00 21.33 392.00 0.00 392.00 L 0.00 194.25 C 18.05 194.25 36.10 194.25 54.15 194.25 C 55.65 200.32 57.18 206.38 58.63 212.46 Z" />
<path fill="#48416b" opacity="1.00" d=" M 518.88 199.00 C 537.89 198.99 556.90 199.00 575.91 199.00 C 576.84 207.32 577.79 215.64 578.68 223.97 C 590.67 210.01 608.76 202.18 626.97 201.18 C 642.83 200.39 659.59 202.96 672.87 212.21 C 684.43 220.11 692.04 232.67 695.93 245.93 C 699.44 257.60 700.55 269.85 700.62 281.99 C 700.63 318.66 700.61 355.32 700.63 391.99 C 679.13 392.01 657.63 392.00 636.12 391.99 C 636.12 355.01 636.14 318.02 636.12 281.03 C 636.05 272.00 632.85 262.04 624.70 257.18 C 612.67 250.22 595.66 254.59 588.16 266.22 C 583.67 272.87 582.41 281.09 582.51 288.97 C 582.53 323.28 582.43 357.60 582.56 391.91 C 561.34 392.12 540.11 391.95 518.88 391.99 C 518.87 327.66 518.87 263.33 518.88 199.00 Z" />
<path fill="#48416b" opacity="1.00" d=" M 1656.60 206.51 C 1717.29 206.49 1777.99 206.50 1838.68 206.50 C 1837.79 211.01 1836.28 215.41 1835.79 219.99 C 1835.66 226.32 1835.78 232.66 1835.75 238.99 C 1777.04 239.01 1718.34 239.00 1659.63 239.00 C 1659.56 232.65 1659.73 226.30 1659.56 219.95 C 1658.94 215.40 1657.50 211.01 1656.60 206.51 Z" />
<path fill="#48416b" opacity="1.00" d=" M 318.73 236.64 C 332.27 223.89 350.53 216.63 369.04 215.64 C 382.67 214.93 396.88 216.46 409.08 222.96 C 415.66 226.42 421.28 231.55 425.47 237.68 C 426.44 231.57 427.52 225.49 428.52 219.39 C 448.72 219.36 468.91 219.38 489.11 219.38 C 489.15 276.92 489.12 334.45 489.12 391.99 C 469.24 391.95 449.36 392.11 429.49 391.91 C 428.71 385.81 427.68 379.75 426.83 373.66 C 414.38 387.72 395.47 394.66 377.00 395.22 C 360.32 395.48 343.32 391.73 328.98 383.03 C 315.78 375.08 305.42 362.77 299.30 348.67 C 291.55 330.94 289.64 311.05 291.78 291.94 C 294.26 271.22 303.28 250.92 318.73 236.64 M 380.52 268.77 C 373.89 270.43 367.81 274.20 363.47 279.49 C 357.15 287.09 354.73 297.26 354.99 306.98 C 355.14 316.47 358.14 326.25 364.79 333.23 C 375.84 345.00 395.45 346.56 408.76 337.78 C 414.41 334.11 418.81 328.68 421.52 322.54 C 425.76 313.16 425.92 302.31 423.40 292.44 C 421.24 283.97 415.85 276.17 408.05 272.01 C 399.70 267.57 389.66 266.64 380.52 268.77 Z" />
<path fill="#48416b" opacity="1.00" d=" M 992.19 217.17 C 1005.84 214.58 1020.17 214.78 1033.57 218.63 C 1044.33 221.75 1054.30 228.23 1060.49 237.70 C 1061.46 231.58 1062.55 225.49 1063.56 219.38 C 1083.74 219.37 1103.93 219.38 1124.11 219.38 C 1124.14 276.92 1124.12 334.46 1124.12 392.00 C 1104.26 391.98 1084.41 392.05 1064.55 391.96 C 1063.73 385.85 1062.79 379.77 1061.95 373.66 C 1048.96 388.20 1029.16 395.18 1009.97 395.26 C 994.96 395.11 979.78 391.84 966.59 384.53 C 954.42 377.83 944.33 367.55 937.66 355.39 C 928.39 338.59 925.28 318.98 926.13 299.99 C 927.07 279.79 933.79 259.52 946.87 243.91 C 958.27 230.09 974.61 220.55 992.19 217.17 M 1016.37 268.59 C 1008.72 270.25 1001.75 274.78 997.19 281.16 C 991.80 288.57 989.79 297.96 990.01 307.00 C 990.18 316.47 993.14 326.23 999.77 333.20 C 1009.26 343.34 1025.17 345.92 1037.87 340.88 C 1046.21 337.62 1052.94 330.78 1056.53 322.62 C 1060.79 313.19 1060.99 302.31 1058.43 292.39 C 1056.41 284.87 1052.04 277.76 1045.45 273.45 C 1037.01 267.84 1026.16 266.57 1016.37 268.59 Z" />
<path fill="#48416b" opacity="1.00" d=" M 1453.66 237.65 C 1468.00 223.55 1488.01 215.90 1508.02 215.51 C 1521.62 215.16 1535.80 217.22 1547.59 224.43 C 1553.11 227.76 1557.79 232.36 1561.43 237.67 C 1562.44 231.57 1563.49 225.48 1564.54 219.39 C 1584.68 219.35 1604.83 219.40 1624.97 219.36 C 1625.03 276.91 1624.99 334.45 1625.00 392.00 C 1605.16 391.96 1585.32 392.09 1565.49 391.93 C 1564.66 385.84 1563.66 379.77 1562.77 373.69 C 1549.84 388.18 1530.14 395.14 1511.03 395.26 C 1492.17 395.16 1472.87 389.94 1457.89 378.17 C 1445.28 368.41 1436.37 354.38 1431.72 339.22 C 1426.68 322.77 1425.69 305.14 1428.28 288.16 C 1431.26 269.27 1439.73 250.95 1453.66 237.65 M 1516.46 268.78 C 1508.94 270.63 1502.11 275.25 1497.76 281.67 C 1492.64 289.01 1490.72 298.17 1490.98 307.02 C 1491.08 316.98 1494.45 327.28 1501.77 334.28 C 1511.60 343.78 1527.27 345.82 1539.66 340.50 C 1548.51 336.73 1555.35 328.93 1558.56 319.93 C 1561.59 311.65 1561.65 302.50 1559.76 293.96 C 1557.91 285.65 1553.20 277.76 1545.91 273.15 C 1537.27 267.68 1526.31 266.49 1516.46 268.78 Z" />
<path fill="#48416b" opacity="1.00" d=" M 1649.90 245.76 C 1715.09 245.74 1780.28 245.75 1845.47 245.75 C 1842.35 252.50 1838.75 259.03 1835.86 265.87 C 1835.59 307.53 1835.82 349.20 1835.75 390.87 C 1814.92 390.88 1794.08 390.88 1773.25 390.87 C 1773.25 362.26 1773.25 333.65 1773.25 305.04 C 1773.29 297.55 1771.13 289.64 1765.57 284.35 C 1754.54 273.56 1733.76 275.13 1725.29 288.33 C 1720.39 295.59 1720.77 304.68 1720.87 313.05 C 1720.87 338.99 1720.88 364.93 1720.87 390.87 C 1700.46 390.87 1680.04 390.87 1659.63 390.87 C 1659.56 349.25 1659.74 307.63 1659.54 266.02 C 1656.73 259.10 1653.00 252.56 1649.90 245.76 Z" />
<path fill="#48416b" opacity="1.00" d=" M 1923.54 384.48 C 1925.84 386.44 1926.41 389.54 1927.58 392.20 C 1939.91 423.21 1952.19 454.24 1964.59 485.22 C 1971.12 484.52 1977.69 485.01 1984.22 485.65 C 1993.73 454.02 2003.27 422.39 2012.71 390.74 C 2013.28 389.43 2013.23 387.28 2015.19 387.18 C 2011.63 421.34 2007.37 455.44 2003.94 489.61 C 2009.37 491.11 2014.59 493.26 2019.68 495.67 C 2044.56 473.96 2069.47 452.29 2094.32 430.54 C 2094.74 430.67 2095.58 430.95 2096.00 431.09 L 2096.00 431.15 C 2075.74 456.05 2055.92 481.31 2035.83 506.34 C 2046.13 515.17 2054.02 526.81 2058.19 539.74 C 2063.93 557.09 2063.41 575.91 2059.65 593.62 C 2019.42 593.65 1979.19 593.57 1938.97 593.66 C 1943.32 606.25 1956.65 612.68 1968.99 614.71 C 1987.40 617.35 2006.90 612.63 2021.83 601.44 C 2032.35 613.25 2042.87 625.07 2053.37 636.91 C 2042.99 646.45 2030.63 653.78 2017.34 658.47 C 1995.82 666.13 1972.33 667.25 1949.89 663.59 C 1931.72 660.53 1913.79 653.47 1900.03 640.96 C 1887.51 629.74 1879.35 614.16 1876.13 597.74 C 1872.90 580.98 1873.22 563.39 1877.94 546.95 C 1882.46 531.08 1891.99 516.75 1904.81 506.38 C 1888.64 479.16 1872.56 451.89 1856.34 424.71 C 1855.55 423.29 1854.48 421.81 1854.87 420.10 C 1863.28 428.71 1870.76 438.20 1878.80 447.16 C 1892.95 463.44 1907.10 479.73 1921.25 496.01 C 1928.48 492.54 1936.11 489.98 1943.91 488.12 C 1938.46 461.03 1933.03 433.93 1927.60 406.83 C 1926.33 399.36 1924.12 392.04 1923.54 384.48 M 1953.32 535.21 C 1946.30 538.25 1940.56 544.53 1939.34 552.23 C 1960.20 552.26 1981.06 552.27 2001.93 552.23 C 2001.32 545.08 1996.42 538.93 1990.09 535.85 C 1978.77 530.18 1964.84 530.10 1953.32 535.21 Z" />
<path fill="#48416b" opacity="1.00" d=" M 325.56 412.75 C 337.54 410.81 350.77 413.69 359.72 422.21 C 371.69 433.49 372.08 454.72 360.37 466.33 C 350.25 476.40 334.42 479.01 320.95 475.36 C 311.20 472.80 302.15 466.06 298.54 456.42 C 295.00 446.81 295.88 435.34 301.73 426.80 C 307.13 418.89 316.27 414.21 325.56 412.75 Z" />
<path fill="#48416b" opacity="1.00" d=" M 609.64 439.74 C 618.49 434.01 627.43 428.41 636.31 422.71 C 645.23 428.38 654.15 434.04 663.05 439.76 C 661.50 439.75 659.95 439.73 658.42 439.73 C 658.31 451.65 658.41 463.57 658.37 475.50 C 656.93 475.49 655.50 475.49 654.08 475.50 C 655.38 481.05 656.73 486.58 658.06 492.12 C 661.54 492.12 665.02 492.12 668.51 492.14 C 668.49 548.51 668.52 604.88 668.49 661.25 C 647.03 661.24 625.58 661.26 604.13 661.25 C 604.12 604.87 604.12 548.50 604.13 492.13 C 607.61 492.13 611.10 492.13 614.60 492.11 C 615.93 486.57 617.28 481.04 618.61 475.50 C 617.15 475.50 615.70 475.50 614.26 475.50 C 614.23 463.59 614.26 451.67 614.25 439.76 C 612.70 439.75 611.17 439.74 609.64 439.74 M 624.12 475.48 C 622.48 481.01 620.96 486.57 619.41 492.12 C 624.31 492.12 629.21 492.13 634.12 492.12 C 634.15 486.61 634.07 481.10 634.18 475.60 C 630.83 475.45 627.47 475.50 624.12 475.48 M 638.88 475.51 C 638.87 481.05 638.87 486.58 638.88 492.12 C 643.66 492.13 648.45 492.13 653.24 492.12 C 651.73 486.58 650.09 481.09 648.62 475.54 C 645.37 475.48 642.12 475.49 638.88 475.51 Z" />
<path fill="#48416b" opacity="1.00" d=" M 955.48 447.11 C 976.81 444.74 998.16 442.48 1019.50 440.16 C 1019.51 456.81 1019.49 473.47 1019.51 490.12 C 1032.46 490.13 1045.41 490.12 1058.37 490.13 C 1058.38 506.58 1058.37 523.03 1058.38 539.49 C 1045.29 539.52 1032.20 539.48 1019.12 539.51 C 1019.12 556.33 1019.13 573.15 1019.12 589.98 C 1019.10 595.16 1018.86 600.70 1021.46 605.39 C 1023.55 609.33 1027.79 611.72 1032.13 612.33 C 1040.15 613.58 1048.27 610.91 1055.08 606.77 C 1059.81 622.56 1064.41 638.40 1069.20 654.18 C 1058.21 660.73 1045.53 663.98 1032.88 665.29 C 1017.80 666.63 1002.01 666.25 987.93 660.09 C 977.49 655.61 968.69 647.46 963.53 637.33 C 956.59 624.04 955.14 608.70 955.50 593.93 C 955.49 575.79 955.50 557.65 955.50 539.51 C 946.32 539.53 937.16 539.43 927.99 539.56 C 927.72 523.09 927.94 506.61 927.88 490.13 C 937.08 490.12 946.29 490.13 955.49 490.12 C 955.49 475.78 955.52 461.45 955.48 447.11 Z" />
<path fill="#48416b" opacity="1.00" d=" M 1694.37 493.42 C 1710.71 484.73 1729.90 482.74 1748.06 485.16 C 1762.40 487.01 1776.65 493.95 1784.81 506.24 C 1785.90 500.15 1787.09 494.09 1788.22 488.02 C 1808.52 487.98 1828.82 488.00 1849.12 488.01 C 1849.13 545.67 1849.12 603.34 1849.13 661.00 C 1849.05 675.40 1846.56 690.06 1839.91 702.95 C 1833.04 716.73 1821.68 728.11 1808.03 735.20 C 1792.56 743.65 1774.88 746.31 1757.57 748.00 L 1745.60 748.00 C 1734.67 746.71 1723.62 745.86 1713.01 742.80 C 1696.99 738.43 1681.57 730.01 1671.29 716.70 C 1661.62 704.55 1657.00 689.09 1656.25 673.73 C 1677.66 674.07 1699.09 674.27 1720.51 674.51 C 1721.38 678.22 1722.46 682.02 1724.93 685.04 C 1729.10 690.34 1735.76 692.83 1742.12 694.39 C 1751.95 696.35 1762.79 695.78 1771.60 690.63 C 1780.01 685.79 1785.37 676.62 1786.17 667.03 C 1786.88 657.75 1786.30 648.42 1786.52 639.12 C 1780.46 647.14 1772.00 653.21 1762.55 656.57 C 1747.39 661.99 1730.81 662.08 1715.10 659.30 C 1699.15 656.51 1683.67 649.38 1672.42 637.55 C 1661.06 625.74 1654.12 610.15 1651.51 594.07 C 1648.10 572.90 1649.84 550.51 1658.83 530.86 C 1665.99 514.83 1678.68 501.34 1694.37 493.42 M 1739.47 537.71 C 1731.65 539.57 1724.55 544.38 1719.99 550.99 C 1714.89 558.58 1713.67 568.09 1714.09 577.05 C 1714.47 586.09 1717.63 595.38 1724.44 601.62 C 1735.94 612.74 1755.11 613.80 1768.39 605.27 C 1774.49 601.43 1779.23 595.52 1781.73 588.77 C 1785.13 580.27 1785.00 570.74 1782.93 561.94 C 1780.63 552.43 1774.25 543.58 1765.06 539.76 C 1757.03 536.42 1747.92 535.92 1739.47 537.71 Z" />
<path fill="#48416b" opacity="1.00" d=" M 183.73 487.74 C 199.37 484.13 216.24 483.90 231.51 489.31 C 245.08 494.07 256.29 504.51 262.67 517.33 C 271.52 534.74 272.82 554.74 272.37 573.94 C 272.37 603.21 272.38 632.48 272.37 661.75 C 250.96 661.75 229.54 661.75 208.13 661.75 C 208.10 629.51 208.16 597.27 208.10 565.03 C 207.97 557.21 206.23 548.34 199.57 543.41 C 190.75 537.32 177.59 541.31 172.18 550.17 C 168.42 556.02 167.83 563.20 167.99 569.98 C 168.01 600.57 168.00 631.16 167.99 661.75 C 146.87 661.75 125.76 661.74 104.64 661.76 C 104.59 629.16 104.65 596.57 104.62 563.98 C 104.39 557.30 103.73 550.03 99.39 544.62 C 95.27 539.59 88.00 538.68 81.98 540.00 C 74.20 541.73 68.15 548.22 65.78 555.67 C 63.31 562.51 64.12 569.87 64.00 576.99 C 63.99 605.24 64.01 633.50 63.99 661.75 C 42.66 661.74 21.33 661.75 0.00 661.75 L 0.00 489.00 C 18.05 489.00 36.11 488.99 54.16 489.01 C 55.66 495.11 57.16 501.22 58.64 507.33 C 72.17 489.24 97.14 481.96 118.72 487.20 C 131.42 490.15 142.86 498.35 149.16 509.84 C 157.83 498.91 170.14 490.97 183.73 487.74 Z" />
<path fill="#48416b" opacity="1.00" d=" M 454.22 507.74 C 467.20 492.65 487.25 484.78 506.94 484.85 C 521.52 484.66 536.65 487.68 548.73 496.22 C 558.92 503.34 566.12 514.11 570.18 525.76 C 574.50 537.98 575.99 551.02 576.13 563.92 C 576.12 596.53 576.14 629.14 576.12 661.75 C 554.63 661.76 533.13 661.73 511.64 661.76 C 511.60 631.83 511.64 601.90 511.62 571.97 C 511.97 562.46 511.46 551.76 504.53 544.46 C 496.03 535.56 481.23 536.01 471.38 542.36 C 462.48 548.00 458.31 558.80 458.15 569.00 C 458.09 599.92 458.15 630.83 458.12 661.75 C 436.87 661.74 415.62 661.76 394.38 661.74 C 394.37 604.17 394.38 546.59 394.37 489.01 C 413.41 489.00 432.44 488.99 451.48 489.02 C 452.37 495.26 453.33 501.49 454.22 507.74 Z" />
<path fill="#48416b" opacity="1.00" d=" M 820.91 486.97 C 841.47 483.44 862.86 484.20 883.00 489.79 C 895.07 493.18 906.78 498.29 916.87 505.81 C 907.80 518.64 898.71 531.45 889.65 544.28 C 877.82 537.83 864.33 534.87 850.97 533.90 C 845.38 533.81 839.28 533.33 834.23 536.18 C 830.86 538.02 829.80 542.85 832.12 545.92 C 834.60 549.28 839.05 550.23 842.99 550.45 C 862.11 551.10 882.00 553.50 898.84 563.27 C 910.15 569.72 918.84 580.81 921.57 593.64 C 924.88 609.08 922.97 626.40 913.36 639.34 C 904.82 650.96 891.45 658.00 877.80 661.78 C 857.76 667.26 836.57 667.16 816.13 664.15 C 796.13 660.95 775.91 655.30 759.17 643.51 C 766.15 627.86 773.10 612.20 780.08 596.55 C 795.04 606.33 812.11 613.11 829.96 614.93 C 837.67 615.62 845.76 616.72 853.25 614.13 C 856.29 613.16 859.08 610.40 858.65 606.98 C 858.61 603.73 855.76 601.47 852.95 600.46 C 844.63 597.38 835.59 598.40 826.97 596.99 C 809.82 594.64 792.14 588.93 779.77 576.27 C 770.39 566.79 766.03 553.22 766.50 540.05 C 766.63 527.81 771.00 515.46 779.62 506.62 C 790.48 495.36 805.80 489.70 820.91 486.97 Z" />
<path fill="#48416b" opacity="1.00" d=" M 1157.53 485.81 C 1179.13 483.81 1201.52 486.45 1221.29 495.68 C 1237.18 503.07 1250.98 515.34 1259.10 530.97 C 1268.18 548.06 1270.53 568.02 1268.74 587.09 C 1267.03 604.94 1260.00 622.48 1247.70 635.68 C 1234.16 650.44 1215.31 659.52 1195.85 663.45 C 1175.01 667.57 1153.06 666.64 1132.79 660.18 C 1114.56 654.38 1097.65 643.23 1086.83 627.24 C 1076.17 611.76 1071.84 592.63 1072.24 574.01 C 1072.29 552.86 1078.80 531.10 1093.29 515.29 C 1109.57 497.20 1133.71 488.04 1157.53 485.81 M 1163.48 538.72 C 1155.74 540.14 1148.52 544.33 1143.63 550.52 C 1132.08 565.11 1132.31 588.12 1144.80 602.08 C 1155.19 613.75 1173.62 616.06 1187.32 609.23 C 1196.36 604.77 1202.75 595.88 1205.05 586.16 C 1208.45 572.17 1204.92 555.86 1193.78 546.20 C 1185.63 539.01 1173.99 536.77 1163.48 538.72 Z" />
<path fill="#48416b" opacity="1.00" d=" M 1373.11 488.43 C 1395.15 480.24 1421.99 486.36 1438.24 503.40 C 1429.62 518.93 1420.99 534.46 1412.32 549.96 C 1406.67 545.49 1400.32 541.57 1393.14 540.29 C 1383.66 538.62 1372.98 539.04 1365.01 545.05 C 1357.25 550.74 1353.92 560.65 1353.76 569.97 C 1353.73 600.56 1353.76 631.16 1353.75 661.75 C 1332.29 661.75 1310.83 661.75 1289.38 661.75 C 1289.37 604.17 1289.38 546.59 1289.37 489.01 C 1308.59 488.99 1327.82 489.00 1347.05 489.00 C 1348.33 495.24 1349.62 501.47 1350.89 507.70 C 1355.88 499.03 1363.74 492.03 1373.11 488.43 Z" />
<path fill="#48416b" opacity="1.00" d=" M 1504.56 485.80 C 1518.95 484.28 1534.07 485.31 1547.36 491.46 C 1554.84 494.89 1561.32 500.36 1566.00 507.14 C 1567.26 501.13 1568.07 495.04 1569.14 489.01 C 1589.30 489.00 1609.47 488.98 1629.63 489.01 C 1629.61 546.59 1629.63 604.17 1629.62 661.74 C 1609.86 661.76 1590.10 661.74 1570.34 661.75 C 1569.36 655.62 1568.41 649.48 1567.48 643.35 C 1554.65 657.82 1535.04 664.73 1516.03 664.99 C 1499.08 664.95 1481.83 660.82 1467.56 651.46 C 1454.77 643.18 1444.94 630.72 1439.19 616.68 C 1432.36 600.10 1430.49 581.77 1432.11 564.00 C 1434.01 544.55 1441.51 525.35 1454.83 510.86 C 1467.59 496.76 1485.70 487.88 1504.56 485.80 M 1524.54 537.75 C 1512.71 539.30 1502.34 547.89 1498.41 559.11 C 1494.91 568.65 1494.74 579.35 1497.58 589.08 C 1499.94 597.12 1505.26 604.37 1512.60 608.53 C 1521.93 613.83 1533.69 614.41 1543.63 610.47 C 1551.70 607.25 1558.26 600.71 1561.88 592.85 C 1566.29 583.54 1566.63 572.71 1564.24 562.80 C 1562.48 555.61 1558.60 548.80 1552.66 544.27 C 1544.78 538.17 1534.23 536.48 1524.54 537.75 Z" />
<path fill="#48416b" opacity="1.00" d=" M 300.25 491.88 C 321.83 491.87 343.41 491.88 364.99 491.88 C 365.00 548.50 365.01 605.13 364.99 661.75 C 343.41 661.74 321.83 661.75 300.25 661.75 C 300.25 605.12 300.25 548.50 300.25 491.88 Z" />
</g>
</svg>
