<svg xmlns="http://www.w3.org/2000/svg" xmlns:xlink="http://www.w3.org/1999/xlink" preserveAspectRatio="xMidYMid" width="25" height="31" viewBox="0 0 25 31">
  <defs>
    <style>

      .cls-2 {
        fill: #00b8ec;
        stroke: #008ab0;
        stroke-width: 1px;
      }
    </style>
  </defs>
  <path d="M16.777,23.825 C16.777,23.825 12.500,30.500 12.500,30.500 C12.500,30.500 8.223,23.825 8.223,23.825 C3.711,22.091 0.500,17.710 0.500,12.564 C0.500,5.901 5.873,0.500 12.500,0.500 C19.127,0.500 24.500,5.901 24.500,12.564 C24.500,17.710 21.289,22.091 16.777,23.825 ZM12.500,8.500 C10.291,8.500 8.500,10.291 8.500,12.500 C8.500,14.709 10.291,16.500 12.500,16.500 C14.709,16.500 16.500,14.709 16.500,12.500 C16.500,10.291 14.709,8.500 12.500,8.500 Z" id="path-1" class="cls-2" fill-rule="evenodd"/>
</svg>
